<?xml version="1.0" encoding="UTF-8"?>
<svg width="13px" height="13px" viewBox="0 0 13 13" version="1.1" xmlns="http://www.w3.org/2000/svg" xmlns:xlink="http://www.w3.org/1999/xlink">
    <!-- Generator: sketchtool 51.1 (57501) - http://www.bohemiancoding.com/sketch -->
    <title>B98F6147-C699-4EED-964B-0AD3AA022B5D</title>
    <desc>Created with sketchtool.</desc>
    <defs></defs>
    <g id="Symbols" stroke="none" stroke-width="1" fill="none" fill-rule="evenodd">
        <g id="Desktop-HD" transform="translate(-433.000000, -3124.000000)" fill="#C2C6CF">
            <g id="pictos" transform="translate(250.000000, 2918.000000)">
                <path d="M192.123443,214.165431 L195.802327,217.844465 C196.065796,218.107945 196.066692,218.534233 195.800208,218.800728 C195.535569,219.065378 195.107883,219.066757 194.843984,218.802847 L191.165099,215.123814 C190.31004,215.777114 189.241528,216.165177 188.082382,216.165177 C185.27546,216.165177 183,213.889625 183,211.082589 C183,208.275552 185.27546,206 188.082382,206 C190.889304,206 193.164764,208.275552 193.164764,211.082589 C193.164764,212.241782 192.776717,213.310337 192.123443,214.165431 Z M188.082382,214.80982 C190.140792,214.80982 191.809462,213.141082 191.809462,211.082589 C191.809462,209.024095 190.140792,207.355357 188.082382,207.355357 C186.023973,207.355357 184.355302,209.024095 184.355302,211.082589 C184.355302,213.141082 186.023973,214.80982 188.082382,214.80982 Z" id="loupe"></path>
            </g>
        </g>
    </g>
</svg>